<?xml version="1.0" encoding="UTF-8" standalone="no"?>
<!DOCTYPE svg PUBLIC "-//W3C//DTD SVG 1.1//EN" "http://www.w3.org/Graphics/SVG/1.1/DTD/svg11.dtd">
<svg width="100%" height="100%" viewBox="0 0 128 128" version="1.1" xmlns="http://www.w3.org/2000/svg" xmlns:xlink="http://www.w3.org/1999/xlink" xml:space="preserve" xmlns:serif="http://www.serif.com/" style="fill-rule:evenodd;clip-rule:evenodd;stroke-linejoin:round;stroke-miterlimit:2;">
    <g transform="matrix(0.25,0,0,0.25,64,64)">
        <g transform="matrix(1,0,0,1,-256,-256)">
            <g id="Player">
                <path id="BG" d="M419.8,512L92.2,512C41.3,512 0,470.7 0,419.8L0,92.2C0,41.3 41.3,0 92.2,0L419.7,0C470.7,0 512,41.3 512,92.2L512,419.7C512,470.7 470.7,512 419.8,512Z" style="fill:rgb(51,95,255);fill-rule:nonzero;"/>
                <path id="O_Blx" d="M150.7,73.6L73.6,361.3L361.3,438.4L438.4,150.7L150.7,73.6ZM285.4,307L205,285.4L226.5,205L306.9,226.5L285.4,307Z" style="fill:white;fill-rule:nonzero;"/>
            </g>
        </g>
    </g>
</svg>
