<?xml version="1.0" encoding="UTF-8" standalone="no"?>
<!DOCTYPE svg PUBLIC "-//W3C//DTD SVG 1.1//EN" "http://www.w3.org/Graphics/SVG/1.1/DTD/svg11.dtd">
<svg width="100%" height="100%" viewBox="0 0 128 128" version="1.1" xmlns="http://www.w3.org/2000/svg" xmlns:xlink="http://www.w3.org/1999/xlink" xml:space="preserve" xmlns:serif="http://www.serif.com/" style="fill-rule:evenodd;clip-rule:evenodd;stroke-linejoin:round;stroke-miterlimit:2;">
    <g transform="matrix(0.110457,0,0,0.110457,64,64)">
        <g transform="matrix(1,0,0,1,-500,-350)">
            <clipPath id="_clip1">
                <rect x="0" y="0" width="1000" height="700"/>
            </clipPath>
            <g clip-path="url(#_clip1)">
                <g>
                    <path d="M979.104,109.306C967.603,66.281 933.719,32.397 890.694,20.896C812.709,0 500,0 500,0C500,0 187.291,0 109.306,20.896C66.281,32.397 32.397,66.281 20.896,109.306C0,187.291 0,350 0,350C0,350 0,512.709 20.896,590.694C32.397,633.719 66.281,667.604 109.306,679.104C187.291,700 500,700 500,700C500,700 812.709,700 890.694,679.104C933.719,667.604 967.603,633.719 979.104,590.694C1000,512.709 1000,350 1000,350C1000,350 1000,187.291 979.104,109.306Z" style="fill:rgb(255,0,0);fill-rule:nonzero;"/>
                    <path d="M400,500L659.796,350.004L400,200L400,500Z" style="fill:white;fill-rule:nonzero;"/>
                </g>
            </g>
        </g>
    </g>
</svg>
